<svg version="1.1" xmlns="http://www.w3.org/2000/svg" viewBox="-33.75064810219277 -10.090520289188838 72.67622894360923 21.0875039657247" fill="none" stroke="black" stroke-width="0.6%" vector-effect="non-scaling-stroke">
    <path d="M -4.75497 9.8676 L -4.75497 -0.09997 L -0.02055 0.02941 L 6.41099 -1.49441 L -26.72992 -2.40007 L -1.64688 -8.34297 L -1.64688 -1.71461" />
    <path d="M -0.02055 9.99698 L -0.02055 0.02941" />
    <path d="M -4.75497 9.8676 L -0.02055 9.99698 L 6.41099 8.47316 L 6.41099 -1.49441" />
    <path d="M 0.06869 -1.24284 L -4.75497 -0.09997" />
    <path d="M 2.23049 6.97175 A 2.5 0.80134 91.56535 0 1 2.1622 6.97892 A 2.5 0.80134 91.56535 0 1 2.29878 1.98079 A 2.5 0.80134 91.56535 0 1 2.23049 6.97175 Z" />
    <path d="M 31.49403 2.53026 L 6.41099 1.8448" />
    <path d="M 31.49403 2.53026 L 37.92558 1.00643 L 37.92558 -8.96114 L 33.19116 -9.09052 L 28.3675 -7.94765 L -3.82653 -8.82743 L -4.14811 -8.75124 L -5.09499 -8.77711 L -22.17 -4.73155 L -18.72183 -4.63732 L -18.85451 -4.60588 L -19.13898 -4.61179 Q -18.9 -4.58 -18.99845 -4.57337 Q -18.9 -4.58 -19.06186 -4.54453 Q -19.21 -4.51 -19.64389 -4.49644 Q -20.07 -4.48 -20.67849 -4.50116 L -20.71779 -4.50223 Q -21.29 -4.52 -21.54914 -4.5484 Q -21.81 -4.58 -21.71372 -4.58916 Q -21.81 -4.58 -21.65797 -4.61486 Q -21.5 -4.65 -21.12563 -4.66462 L -22.31524 -4.69713 L -23.07208 -4.51782 L -19.62391 -4.42359 L -19.75659 -4.39215 L -20.04106 -4.39806 Q -19.81 -4.37 -19.90053 -4.35964 Q -19.81 -4.37 -19.96394 -4.3308 Q -20.12 -4.29 -20.54597 -4.28271 Q -20.97 -4.27 -21.58057 -4.28743 L -21.61987 -4.28851 Q -22.19 -4.3 -22.45122 -4.33467 Q -22.71 -4.37 -22.6158 -4.37544 Q -22.71 -4.37 -22.56005 -4.40113 Q -22.41 -4.44 -22.02771 -4.45089 L -23.21732 -4.4834 L -24.32039 -4.22205 L -23.99998 -4.2133 L -24.04849 -4.20425 Q -24.12 -4.19 -24.09371 -4.18482 Q -24.12 -4.19 -24.07566 -4.1746 Q -24.03 -4.16 -23.82224 -4.14973 L -23.60014 -4.13515 L -20.82354 -4.13936 L -20.98213 -4.10178 L -23.06892 -4.10279 L -21.39195 -4.00468 L -21.5474 -3.96785 L -24.09323 -4.12767 Q -24.64 -4.16 -24.5026 -4.17888 L -32.75065 -2.22468 L -31.80376 -2.1988 L -32.12534 -2.12261 L 0.06869 -1.24284" />
    <path d="M -32.75065 7.74289 L -32.12534 7.75998" />
    <path d="M -32.12534 7.84496 L -4.75497 8.59292" />
    <path d="M 31.49403 -7.43732 L 37.92558 -8.96114" />
    <path d="M 31.49403 -7.43732 L -1.64688 -8.34297" />
    <path d="M -21.0025 -4.75794 L -20.86432 -4.79068 L -20.61383 -4.78466 Q -20.82 -4.81 -20.73074 -4.81952 Q -20.82 -4.81 -20.65854 -4.85165 Q -20.52 -4.88 -20.21934 -4.89432 Q -19.92 -4.9 -19.45976 -4.89254 L -17.83231 -4.84807 L -17.97755 -4.81366 L -19.59345 -4.85781 Q -20.16 -4.87 -20.31915 -4.83615 Q -20.49 -4.8 -20.37726 -4.81062 Q -20.49 -4.8 -20.1753 -4.77372 L -18.35597 -4.724 L -18.50121 -4.68959 L -21.0025 -4.75794 Z" />
    <path d="M -18.72265 -4.97219 Q -18.53 -4.98 -18.2421 -5.01549 Q -17.88 -5.06 -17.55646 -5.07134 Q -17.23 -5.09 -16.87749 -5.07613 Q -16.48 -5.07 -16.32776 -5.03258 Q -16.18 -5 -16.25652 -5.00016 Q -16.18 -5 -16.34836 -4.95897 Q -16.47 -4.93 -16.69246 -4.91287 Q -16.92 -4.89 -17.20522 -4.88913 Q -17.49 -4.88 -17.77137 -4.89122 L -17.61985 -4.92712 Q -17.31 -4.92 -17.07422 -4.92963 Q -16.83 -4.94 -16.71361 -4.96895 Q -16.6 -5 -16.6494 -4.99683 Q -16.6 -5 -16.6842 -5.0141 Q -16.77 -5.03 -17.02287 -5.03985 Q -17.23 -5.05 -17.43006 -5.03531 Q -17.63 -5.03 -17.8919 -4.99461 Q -18.15 -4.96 -18.37493 -4.94889 Q -18.6 -4.93 -18.826 -4.92968 Q -19.05 -4.93 -19.31103 -4.93267 Q -19.72 -4.94 -19.85806 -4.97625 Q -20 -5.01 -19.91759 -5.0062 Q -20 -5.01 -19.81456 -5.05162 Q -19.7 -5.08 -19.4618 -5.10007 Q -19.23 -5.12 -18.94029 -5.12741 Q -18.65 -5.13 -18.36018 -5.12619 L -18.51171 -5.09029 Q -18.82 -5.1 -19.07025 -5.08532 Q -19.32 -5.07 -19.45161 -5.0417 Q -19.57 -5.01 -19.52315 -5.01114 Q -19.57 -5.01 -19.49122 -4.99444 Q -19.41 -4.98 -19.16413 -4.9687 Q -18.92 -4.96 -18.72265 -4.97219 Z" />
    <path d="M -16.23942 -5.21325 Q -16.28 -5.2 -16.33616 -5.19888 L -16.73378 -5.20975 Q -16.68 -5.22 -16.64616 -5.22623 Q -16.5 -5.26 -16.6008 -5.24652 Q -16.5 -5.26 -16.81055 -5.28197 L -18.58596 -5.33049 L -18.44072 -5.3649 L -15.93943 -5.29655 L -16.08075 -5.26307 L -16.37207 -5.2704 Q -16.11 -5.24 -16.19589 -5.23333 Q -16.11 -5.24 -16.23942 -5.21325 Z" />
    <path d="M -17.8248 -5.39537 Q -18.2 -5.43 -18.06493 -5.44942 Q -18.2 -5.43 -17.98763 -5.48447 Q -17.81 -5.53 -17.37251 -5.54193 Q -16.93 -5.56 -16.37069 -5.54319 L -16.29209 -5.54104 Q -15.92 -5.53 -15.67575 -5.51144 Q -15.43 -5.49 -15.35307 -5.46693 Q -15.27 -5.44 -15.31877 -5.44524 Q -15.27 -5.44 -15.37581 -5.41787 Q -15.54 -5.38 -15.95465 -5.36564 Q -16.37 -5.35 -16.96658 -5.36902 L -17.14458 -5.37388 L -16.5691 -5.51023 Q -16.94 -5.52 -17.24009 -5.50917 Q -17.54 -5.5 -17.64641 -5.47307 Q -17.72 -5.45 -17.69743 -5.45024 Q -17.72 -5.45 -17.68426 -5.43966 Q -17.65 -5.42 -17.53265 -5.41083 L -17.8248 -5.39537 Z" />
    <path d="M -14.3127 -5.68197 L -14.42968 -5.65425 L -16.54325 -5.65869 L -14.79475 -5.56776 L -14.93999 -5.53334 L -17.19397 -5.66029 L -17.07621 -5.68819 L -14.97411 -5.68531 L -16.66874 -5.78473 L -16.55098 -5.81264 L -13.80317 -5.80269 L -13.94763 -5.76846 L -15.98735 -5.78001 L -14.3127 -5.68197 Z" />
    <path d="M -19.48903 -4.1782 L -19.63427 -4.14379 L -23.18508 -4.24082 L -23.03984 -4.27523 L -19.48903 -4.1782 Z" />
    <path d="M -15.22485 -6.04559 Q -14.76 -6.06 -14.18143 -6.04539 L -14.15138 -6.04457 Q -13.78 -6.03 -13.5393 -6.01488 Q -13.29 -6 -13.2228 -5.97013 Q -13.15 -5.95 -13.19469 -5.95029 Q -13.15 -5.95 -13.2631 -5.91843 Q -13.44 -5.88 -13.89747 -5.86159 Q -14.36 -5.85 -14.94551 -5.86192 L -14.97556 -5.86274 Q -15.34 -5.87 -15.58344 -5.8919 Q -15.83 -5.91 -15.89956 -5.93643 Q -15.97 -5.96 -15.92827 -5.95651 Q -15.97 -5.96 -15.85843 -5.98894 Q -15.69 -6.03 -15.22485 -6.04559 Z" />
    <path d="M -13.61783 -6.08943 Q -13.78 -6.12 -13.69063 -6.12121 Q -13.78 -6.12 -13.58458 -6.16725 L -13.31529 -6.23106 L -14.63298 -6.26707 L -14.48224 -6.30278 L -11.11636 -6.2108 L -11.53796 -6.11091 Q -11.73 -6.07 -12.11401 -6.04896 Q -12.5 -6.03 -12.96708 -6.04416 Q -13.46 -6.06 -13.61783 -6.08943 Z" />
    <path d="M -10.78524 -6.51773 L -10.90222 -6.49001 L -13.01579 -6.49445 L -11.26729 -6.40351 L -11.41253 -6.3691 L -13.66652 -6.49605 L -13.54875 -6.52395 L -11.44665 -6.52107 L -13.14128 -6.62049 L -13.02352 -6.64839 L -10.27571 -6.63845 L -10.42017 -6.60422 L -12.45989 -6.61577 L -10.78524 -6.51773 Z" />
    <path d="M -11.69739 -6.88134 Q -11.24 -6.9 -10.65397 -6.88115 L -10.62392 -6.88033 Q -10.26 -6.87 -10.01184 -6.85063 Q -9.77 -6.83 -9.69535 -6.80589 Q -9.62 -6.78 -9.66723 -6.78605 Q -9.62 -6.78 -9.73564 -6.75419 Q -9.91 -6.71 -10.37001 -6.69735 Q -10.83 -6.68 -11.41805 -6.69767 L -11.4481 -6.69849 Q -11.81 -6.71 -12.05598 -6.72766 Q -12.3 -6.75 -12.3721 -6.77219 Q -12.45 -6.8 -12.40081 -6.79227 Q -12.45 -6.8 -12.33097 -6.8247 Q -12.16 -6.87 -11.69739 -6.88134 Z" />
    <path d="M -10.76057 -7.07856 Q -10.71 -7.06 -10.54804 -7.05958 Q -10.37 -7.05 -10.23436 -7.06273 Q -10.09 -7.07 -9.91441 -7.09486 Q -9.73 -7.12 -9.57289 -7.13179 Q -9.41 -7.14 -9.24593 -7.14817 Q -9.08 -7.15 -8.8959 -7.1468 Q -8.59 -7.14 -8.46409 -7.11166 Q -8.34 -7.08 -8.40501 -7.08494 Q -8.34 -7.08 -8.47713 -7.05237 Q -8.62 -7.02 -8.93109 -7.00284 Q -9.24 -6.99 -9.58274 -6.9969 L -9.43671 -7.03149 Q -9.26 -7.03 -9.08323 -7.03522 Q -8.91 -7.04 -8.82851 -7.06197 Q -8.75 -7.08 -8.78237 -7.082 Q -8.75 -7.08 -8.80618 -7.09414 Q -8.86 -7.11 -9.02728 -7.11201 Q -9.18 -7.12 -9.30237 -7.10853 Q -9.42 -7.1 -9.60298 -7.07701 Q -9.78 -7.05 -9.9503 -7.03993 Q -10.12 -7.03 -10.28967 -7.02275 Q -10.46 -7.02 -10.66323 -7.02435 Q -11 -7.03 -11.10963 -7.06061 Q -11.22 -7.09 -11.15786 -7.08549 Q -11.22 -7.09 -11.0756 -7.12213 Q -10.97 -7.15 -10.78868 -7.16201 Q -10.6 -7.18 -10.36876 -7.183 Q -10.13 -7.19 -9.91176 -7.18223 L -10.057 -7.14782 Q -10.28 -7.15 -10.45647 -7.14328 Q -10.64 -7.13 -10.72652 -7.11259 Q -10.81 -7.09 -10.77847 -7.08998 Q -10.81 -7.09 -10.76057 -7.07856 Z" />
    <path d="M -10.48206 -7.24077 L -10.51905 -7.24178 L -10.36674 -7.27786 Q -10.28 -7.28 -10.08279 -7.2755 Q -10.29 -7.31 -10.20733 -7.31458 Q -10.29 -7.31 -10.15075 -7.34125 Q -10.03 -7.37 -9.73545 -7.38437 Q -9.45 -7.4 -9.12443 -7.38893 Q -8.73 -7.38 -8.61849 -7.34845 Q -8.5 -7.32 -8.57394 -7.32338 Q -8.5 -7.32 -8.68616 -7.2753 L -8.82748 -7.24182 L -8.63098 -7.23645 Q -8.41 -7.23 -8.22828 -7.23747 Q -8.05 -7.24 -7.9611 -7.26565 Q -7.88 -7.28 -7.91817 -7.28514 Q -7.88 -7.28 -7.94636 -7.29969 Q -8.01 -7.32 -8.17348 -7.31979 L -8.02745 -7.35439 Q -7.84 -7.35 -7.71081 -7.33381 Q -7.58 -7.32 -7.55703 -7.29724 Q -7.53 -7.28 -7.55195 -7.28841 Q -7.53 -7.28 -7.62529 -7.25419 Q -7.77 -7.22 -8.07147 -7.2056 Q -8.37 -7.19 -8.7531 -7.2014 L -9.90434 -7.23286 Q -10.25 -7.24 -10.48206 -7.24077 Z" />
    <path d="M -8.4613 -7.72932 L -5.09542 -7.63734 L -5.29013 -7.59121 L -8.41017 -7.57771 L -6.03754 -7.41412 L -6.23303 -7.3678 L -9.59891 -7.45978 L -9.44817 -7.4955 L -8.13742 -7.45968 L -6.73677 -7.41767 L -9.08702 -7.58106 L -8.97161 -7.60841 L -5.87853 -7.62285 L -7.30129 -7.65778 L -8.61203 -7.6936 L -8.4613 -7.72932 Z" />
    <path d="M -8.00771 -6.89846 L -8.15295 -6.86405 L -11.70376 -6.96108 L -11.55852 -6.99549 L -8.00771 -6.89846 Z" />
    <path d="M -32.12534 7.84496 L -32.12534 -2.12261" />
    <path d="M 31.49403 2.53026 L 31.49403 -7.43732" />
    <path d="M 35.83533 -5.974 A 2.5 0.80134 91.56535 0 1 35.90362 -5.98118 A 2.5 0.80134 91.56535 0 1 35.76703 -0.98304 A 2.5 0.80134 91.56535 0 1 35.83533 -5.974 Z" />
    <path d="M -32.75065 7.74289 L -32.75065 -2.22468" />
    <path d="M -24.32039 -4.14587 L -24.32039 -4.22205" />
    <path d="M -23.07208 -4.47943 L -23.07208 -4.51782" />
    <path d="M -22.17 -4.69316 L -22.17 -4.73155" />
    <path d="M -23.06892 -4.06337 L -23.06892 -4.10279" />
    <path d="M -23.60014 -4.09672 L -23.60014 -4.13515" />
    <path d="M -23.82224 -4.11066 L -23.82224 -4.14973" />
    <path d="M -22.02771 -4.42227 L -22.02771 -4.45089" />
    <path d="M -20.04106 -4.31655 L -20.04106 -4.39806" />
    <path d="M -21.12563 -4.63599 L -21.12563 -4.66462" />
    <path d="M -19.13898 -4.53028 L -19.13898 -4.61179" />
    <path d="M -20.86432 -4.75416 L -20.86432 -4.79068" />
    <path d="M -20.61383 -4.74732 L -20.61383 -4.78466" />
    <path d="M -20.1753 -4.73533 L -20.1753 -4.77372" />
    <path d="M -19.45976 -4.85416 L -19.45976 -4.89254" />
    <path d="M -17.61985 -4.88805 L -17.61985 -4.92712" />
    <path d="M -16.37207 -5.19986 L -16.37207 -5.2704" />
    <path d="M -18.44072 -5.32652 L -18.44072 -5.3649" />
    <path d="M -16.5691 -5.41737 L -16.5691 -5.51023" />
    <path d="M -15.98735 -5.74476 L -15.98735 -5.78001" />
    <path d="M -16.54325 -5.62364 L -16.54325 -5.65869" />
    <path d="M -16.55098 -5.77782 L -16.55098 -5.81264" />
    <path d="M -17.07621 -5.65366 L -17.07621 -5.68819" />
    <path d="M -14.97411 -5.65539 L -14.97411 -5.68531" />
    <path d="M -23.03984 -4.23685 L -23.03984 -4.27523" />
    <path d="M -13.31529 -6.05835 L -13.31529 -6.23106" />
    <path d="M -14.48224 -6.26295 L -14.48224 -6.30278" />
    <path d="M -12.45989 -6.58052 L -12.45989 -6.61577" />
    <path d="M -13.01579 -6.4594 L -13.01579 -6.49445" />
    <path d="M -13.02352 -6.61358 L -13.02352 -6.64839" />
    <path d="M -13.54875 -6.48942 L -13.54875 -6.52395" />
    <path d="M -11.44665 -6.49115 L -11.44665 -6.52107" />
    <path d="M -9.43671 -6.99401 L -9.43671 -7.03149" />
    <path d="M -10.36674 -7.24087 L -10.36674 -7.27786" />
    <path d="M -10.08279 -7.23716 L -10.08279 -7.2755" />
    <path d="M -8.02745 -7.31187 L -8.02745 -7.35439" />
    <path d="M -8.82748 -7.20343 L -8.82748 -7.24182" />
    <path d="M -8.4613 -7.68948 L -8.4613 -7.72932" />
    <path d="M -8.41017 -7.53401 L -8.41017 -7.57771" />
    <path d="M -5.87853 -7.58866 L -5.87853 -7.62285" />
    <path d="M -8.97161 -7.57304 L -8.97161 -7.60841" />
    <path d="M -6.73677 -7.38157 L -6.73677 -7.41767" />
    <path d="M -9.44817 -7.45566 L -9.44817 -7.4955" />
    <path d="M -8.13742 -7.41985 L -8.13742 -7.45968" />
    <path d="M -11.55852 -6.95711 L -11.55852 -6.99549" />
    <path d="M -21.42608 -4.32159 Q -21 -4.31 -20.69676 -4.31784 Q -20.39 -4.33 -20.2837 -4.35095 Q -20.15 -4.38 -20.24131 -4.3704 Q -20.15 -4.38 -20.4303 -4.40724 L -21.62547 -4.4399 Q -22.03 -4.43 -22.16702 -4.402 Q -22.27 -4.38 -22.20505 -4.38444 Q -22.27 -4.38 -22.08918 -4.356 Q -21.91 -4.33 -21.42608 -4.32159 Z" />
    <path d="M -20.524 -4.53532 Q -20.1 -4.52 -19.79468 -4.53157 Q -19.49 -4.54 -19.38162 -4.56468 Q -19.25 -4.6 -19.33923 -4.58413 Q -19.25 -4.6 -19.52822 -4.62097 L -20.72339 -4.65363 Q -21.13 -4.65 -21.26494 -4.61573 Q -21.37 -4.59 -21.30297 -4.59817 Q -21.37 -4.59 -21.1871 -4.56973 Q -21 -4.55 -20.524 -4.53532 Z" />
    <path d="M -15.72719 -5.42747 Q -15.64 -5.45 -15.69151 -5.44412 Q -15.64 -5.45 -15.768 -5.46759 Q -15.9 -5.49 -16.22243 -5.49951 L -16.64795 -5.39869 L -16.61559 -5.39781 Q -16.28 -5.39 -16.05081 -5.39814 Q -15.82 -5.41 -15.72719 -5.42747 Z" />
    <path d="M -16.64795 -5.36218 L -16.64795 -5.39869" />
    <path d="M -16.61559 -5.36172 L -16.61559 -5.39781" />
    <path d="M -14.34827 -6.01136 Q -14.76 -6.02 -15.08191 -6.01409 Q -15.4 -6.01 -15.50936 -5.9794 Q -15.62 -5.95 -15.55008 -5.96062 Q -15.62 -5.95 -15.42978 -5.93075 Q -15.24 -5.91 -14.77946 -5.89576 Q -14.37 -5.88 -14.04619 -5.89325 Q -13.72 -5.9 -13.61449 -5.92803 Q -13.51 -5.95 -13.57508 -5.9463 Q -13.51 -5.95 -13.69296 -5.97603 Q -13.88 -6 -14.34827 -6.01136 Z" />
    <path d="M -11.63235 -6.0923 L -11.63235 -6.18507 L -12.95235 -6.22114 L -13.22321 -6.15696 Q -13.34 -6.13 -13.28843 -6.12862 Q -13.34 -6.13 -13.24089 -6.10849 Q -13.14 -6.09 -12.82096 -6.08 Q -12.52 -6.07 -12.27575 -6.08211 Q -12.03 -6.09 -11.91185 -6.11885 L -11.63235 -6.18507" />
    <path d="M -11.91185 -6.0609 L -11.91185 -6.11885" />
    <path d="M -10.82081 -6.84712 Q -11.24 -6.86 -11.55445 -6.84984 Q -11.87 -6.84 -11.9819 -6.81516 Q -12.09 -6.79 -12.02262 -6.79638 Q -12.09 -6.79 -11.90232 -6.76651 Q -11.71 -6.74 -11.252 -6.73152 Q -10.84 -6.72 -10.51873 -6.72901 Q -10.2 -6.74 -10.08703 -6.76379 Q -9.98 -6.79 -10.04762 -6.78206 Q -9.98 -6.79 -10.1655 -6.81178 Q -10.35 -6.83 -10.82081 -6.84712 Z" />
    <path d="M -9.79976 -7.32606 Q -9.87 -7.31 -9.84175 -7.30572 Q -9.87 -7.31 -9.82527 -7.29253 Q -9.78 -7.28 -9.64351 -7.26412 L -9.13031 -7.25009 L -9.01647 -7.27706 Q -8.75 -7.34 -8.91846 -7.31668 Q -8.75 -7.34 -9.20957 -7.35288 Q -9.41 -7.36 -9.5695 -7.35068 Q -9.73 -7.34 -9.79976 -7.32606 Z" />
    <path d="M -9.64351 -7.22573 L -9.64351 -7.26412" />
    <path d="M -9.13031 -7.21171 L -9.13031 -7.25009" />
    <path d="M -24.07566 -4.12657 L -24.07566 -4.1746" />
    <path d="M -22.56005 -4.35119 L -22.56005 -4.40113" />
    <path d="M -21.65797 -4.56492 L -21.65797 -4.61486" />
    <path d="M -20.65854 -4.79156 L -20.65854 -4.85165" />
    <path d="M -20.21934 -4.85104 L -20.21934 -4.89432" />
    <path d="M -18.72265 -4.93209 L -18.72265 -4.97219" />
    <path d="M -18.2421 -4.95903 L -18.2421 -5.01549" />
    <path d="M -19.16413 -4.92952 L -19.16413 -4.9687" />
    <path d="M -17.55646 -5.02737 L -17.55646 -5.07134" />
    <path d="M -19.49122 -4.93923 L -19.49122 -4.99444" />
    <path d="M -16.87749 -5.03421 L -16.87749 -5.07613" />
    <path d="M -16.32776 -4.96413 L -16.32776 -5.03258" />
    <path d="M -18.94029 -5.09062 L -18.94029 -5.12741" />
    <path d="M -19.4618 -5.03921 L -19.4618 -5.10007" />
    <path d="M -19.81456 -4.96766 L -19.81456 -5.05162" />
    <path d="M -17.07422 -4.89243 L -17.07422 -4.92963" />
    <path d="M -16.71361 -4.91121 L -16.71361 -4.96895" />
    <path d="M -16.64616 -5.20735 L -16.64616 -5.22623" />
    <path d="M -17.98763 -5.41755 L -17.98763 -5.48447" />
    <path d="M -17.37251 -5.50326 L -17.37251 -5.54193" />
    <path d="M -17.68426 -5.40281 L -17.68426 -5.43966" />
    <path d="M -16.37069 -5.46438 L -16.37069 -5.54319" />
    <path d="M -16.29209 -5.483 L -16.29209 -5.54104" />
    <path d="M -15.67575 -5.37934 L -15.67575 -5.51144" />
    <path d="M -15.35307 -5.42395 L -15.35307 -5.46693" />
    <path d="M -15.22485 -6.00881 L -15.22485 -6.04559" />
    <path d="M -14.18143 -6.00618 L -14.18143 -6.04539" />
    <path d="M -15.85843 -5.92545 L -15.85843 -5.98894" />
    <path d="M -14.15138 -6.0051 L -14.15138 -6.04457" />
    <path d="M -13.5393 -5.88102 L -13.5393 -6.01488" />
    <path d="M -13.2228 -5.92999 L -13.2228 -5.97013" />
    <path d="M -13.58458 -6.08358 L -13.58458 -6.16725" />
    <path d="M -11.69739 -6.84457 L -11.69739 -6.88134" />
    <path d="M -10.65397 -6.84194 L -10.65397 -6.88115" />
    <path d="M -12.33097 -6.7612 L -12.33097 -6.8247" />
    <path d="M -10.62392 -6.84086 L -10.62392 -6.88033" />
    <path d="M -10.01184 -6.71678 L -10.01184 -6.85063" />
    <path d="M -9.69535 -6.76575 L -9.69535 -6.80589" />
    <path d="M -10.76057 -7.02757 L -10.76057 -7.07856" />
    <path d="M -10.54804 -7.02194 L -10.54804 -7.05958" />
    <path d="M -10.23436 -7.02425 L -10.23436 -7.06273" />
    <path d="M -9.91441 -7.04289 L -9.91441 -7.09486" />
    <path d="M -9.57289 -7.08093 L -9.57289 -7.13179" />
    <path d="M -9.24593 -7.11142 L -9.24593 -7.14817" />
    <path d="M -10.36876 -7.14697 L -10.36876 -7.183" />
    <path d="M -8.8959 -7.10577 L -8.8959 -7.1468" />
    <path d="M -10.78868 -7.02874 L -10.78868 -7.16201" />
    <path d="M -8.46409 -7.0556 L -8.46409 -7.11166" />
    <path d="M -11.0756 -7.05363 L -11.0756 -7.12213" />
    <path d="M -9.08323 -6.99687 L -9.08323 -7.03522" />
    <path d="M -8.82851 -7.00873 L -8.82851 -7.06197" />
    <path d="M -10.15075 -7.28817 L -10.15075 -7.34125" />
    <path d="M -9.73545 -7.33726 L -9.73545 -7.38437" />
    <path d="M -7.55703 -7.27951 L -7.55703 -7.29724" />
    <path d="M -9.12443 -7.34984 L -9.12443 -7.38893" />
    <path d="M -7.71081 -7.2377 L -7.71081 -7.33381" />
    <path d="M -8.61849 -7.29427 L -8.61849 -7.34845" />
    <path d="M -8.63098 -7.19889 L -8.63098 -7.23645" />
    <path d="M -7.9611 -7.21174 L -7.9611 -7.26565" />
    <path d="M -8.22828 -7.20011 L -8.22828 -7.23747" />
    <path d="M -21.42608 -4.28361 L -21.42608 -4.32159" />
    <path d="M -20.69676 -4.27951 L -20.69676 -4.31784" />
    <path d="M -22.08918 -4.30654 L -22.08918 -4.356" />
    <path d="M -20.2837 -4.29372 L -20.2837 -4.35095" />
    <path d="M -20.524 -4.49734 L -20.524 -4.53532" />
    <path d="M -19.79468 -4.49324 L -19.79468 -4.53157" />
    <path d="M -21.1871 -4.52027 L -21.1871 -4.56973" />
    <path d="M -19.38162 -4.50745 L -19.38162 -4.56468" />
    <path d="M -15.72719 -5.3759 L -15.72719 -5.42747" />
    <path d="M -16.05081 -5.36307 L -16.05081 -5.39814" />
    <path d="M -15.42978 -5.88139 L -15.42978 -5.93075" />
    <path d="M -14.77946 -5.85796 L -14.77946 -5.89576" />
    <path d="M -14.04619 -5.85742 L -14.04619 -5.89325" />
    <path d="M -13.61449 -5.87541 L -13.61449 -5.92803" />
    <path d="M -13.24089 -6.05432 L -13.24089 -6.10849" />
    <path d="M -12.82096 -6.04088 L -12.82096 -6.08" />
    <path d="M -12.27575 -6.04307 L -12.27575 -6.08211" />
    <path d="M -11.90232 -6.71715 L -11.90232 -6.76651" />
    <path d="M -11.252 -6.69372 L -11.252 -6.73152" />
    <path d="M -10.51873 -6.69318 L -10.51873 -6.72901" />
    <path d="M -10.08703 -6.71117 L -10.08703 -6.76379" />
    <path d="M -9.82527 -7.2307 L -9.82527 -7.29253" />
    <path d="M -9.01647 -7.2086 L -9.01647 -7.27706" />
    <path d="M -24.09371 -4.1277 L -24.09371 -4.18482" />
    <path d="M -20.37726 -4.74085 L -20.37726 -4.81062" />
    <path d="M -19.52315 -4.94081 L -19.52315 -5.01114" />
    <path d="M -16.6494 -4.91651 L -16.6494 -4.99683" />
    <path d="M -16.6008 -5.20612 L -16.6008 -5.24652" />
    <path d="M -17.69743 -5.40211 L -17.69743 -5.45024" />
    <path d="M -10.77847 -7.0283 L -10.77847 -7.08998" />
    <path d="M -8.78237 -7.012 L -8.78237 -7.082" />
    <path d="M -7.91817 -7.21479 L -7.91817 -7.28514" />
    <path d="M -22.20505 -4.31338 L -22.20505 -4.38444" />
    <path d="M -20.24131 -4.29646 L -20.24131 -4.3704" />
    <path d="M -21.30297 -4.52711 L -21.30297 -4.59817" />
    <path d="M -19.33923 -4.51019 L -19.33923 -4.58413" />
    <path d="M -15.69151 -5.37823 L -15.69151 -5.44412" />
    <path d="M -15.55008 -5.88935 L -15.55008 -5.96062" />
    <path d="M -13.57508 -5.87821 L -13.57508 -5.9463" />
    <path d="M -13.28843 -6.05681 L -13.28843 -6.12862" />
    <path d="M -12.02262 -6.72511 L -12.02262 -6.79638" />
    <path d="M -10.04762 -6.71397 L -10.04762 -6.78206" />
    <path d="M -9.84175 -7.23115 L -9.84175 -7.30572" />
    <path d="M -8.91846 -7.20592 L -8.91846 -7.31668" />
</svg>