<svg version="1.1" xmlns="http://www.w3.org/2000/svg" viewBox="-34.725987767008284 -10.06255227193413 74.50577571453431 21.03423100613407" fill="none" stroke="black" stroke-width="0.6%" vector-effect="non-scaling-stroke">
    <path d="M -5.69247 9.8418 L -5.69247 -0.12641 L -0.96571 0.00346 L 5.55532 -1.50278 L 3.19194 -1.56771 L 3.35497 -1.60537 L -27.36897 -2.44956 L -1.93694 -8.32388 L 28.787 -7.4797 L 28.95002 -7.51735 L 32.25875 -7.42644 L 38.77979 -8.93268 L 34.05303 -9.06255 L 28.99923 -7.89522 L -5.03344 -8.83032 L -22.67207 -4.75612 L -19.22948 -4.66153 L -19.36401 -4.63046 L -19.64813 -4.63641 Q -19.41 -4.61 -19.50985 -4.59867 Q -19.41 -4.61 -19.57496 -4.5698 Q -19.73 -4.53 -20.15981 -4.5224 Q -20.59 -4.51 -21.19413 -4.52747 L -21.23336 -4.52855 Q -21.8 -4.54 -22.06199 -4.57456 Q -22.32 -4.6 -22.22418 -4.61466 Q -22.32 -4.6 -22.16691 -4.6404 Q -22.01 -4.68 -21.63165 -4.68947 L -22.81934 -4.72211 L -23.5867 -4.54486 L -20.14411 -4.45027 L -20.27864 -4.4192 L -20.56276 -4.42515 Q -20.33 -4.4 -20.42448 -4.38741 Q -20.33 -4.4 -20.48959 -4.35854 Q -20.64 -4.32 -21.07444 -4.31114 Q -21.5 -4.3 -22.10876 -4.31621 L -22.14799 -4.31728 Q -22.72 -4.33 -22.97662 -4.3633 Q -23.24 -4.39 -23.13881 -4.4034 Q -23.24 -4.39 -23.08154 -4.42914 Q -22.92 -4.47 -22.54628 -4.47821 L -23.73397 -4.51084 L -24.85238 -4.25251 L -24.5325 -4.24372 L -24.58153 -4.23478 Q -24.66 -4.22 -24.6279 -4.21537 Q -24.66 -4.22 -24.61044 -4.20544 Q -24.56 -4.19 -24.35849 -4.18072 L -24.13725 -4.1662 L -21.36043 -4.16932 L -21.52123 -4.13218 L -23.60794 -4.13397 L -21.93676 -4.0362 L -22.09437 -3.9998 L -24.63078 -4.15898 Q -25.17 -4.19 -25.03713 -4.20984 L -33.72599 -2.20287" />
    <path d="M -0.96571 9.97168 L -0.96571 0.00346" />
    <path d="M -5.69247 9.8418 L -0.96571 9.97168 L 5.55532 8.46544 L 5.55532 -1.50278" />
    <path d="M -0.63867 -1.29375 L -5.69247 -0.12641" />
    <path d="M 1.47968 6.91478 A 2.5 0.81254 91.5739 0 1 1.41101 6.92179 A 2.5 0.81254 91.5739 0 1 1.54834 1.92367 A 2.5 0.81254 91.5739 0 1 1.47968 6.91478 Z" />
    <path d="M 5.55532 1.85019 L 28.787 2.48852 L 28.95002 2.45087 L 32.25875 2.54178 L 38.77979 1.03554 L 38.77979 -8.93268" />
    <path d="M -33.72599 7.76534 L -5.69247 8.53561" />
    <path d="M -0.63867 -1.29375 L -33.72599 -2.20287" />
    <path d="M -21.50304 -4.78181 L -21.36294 -4.81418 L -21.1128 -4.80813 Q -21.32 -4.84 -21.22768 -4.84232 Q -21.32 -4.84 -21.15357 -4.87446 Q -21.02 -4.91 -20.71187 -4.91654 Q -20.41 -4.93 -19.95241 -4.9145 L -18.32758 -4.86985 L -18.47485 -4.83584 L -20.08813 -4.88017 Q -20.66 -4.9 -20.8151 -4.85899 Q -20.98 -4.82 -20.87472 -4.83346 Q -20.98 -4.82 -20.67492 -4.79712 L -18.85853 -4.74721 L -19.00579 -4.7132 L -21.50304 -4.78181 Z" />
    <path d="M -19.21063 -4.99308 Q -19.02 -5 -18.72753 -5.03576 Q -18.37 -5.08 -18.03862 -5.0908 Q -17.71 -5.1 -17.35938 -5.09528 Q -16.96 -5.08 -16.81221 -5.05196 Q -16.66 -5.02 -16.74286 -5.02031 Q -16.66 -5.02 -16.83714 -4.97909 Q -16.96 -4.95 -17.18394 -4.93358 Q -17.41 -4.92 -17.69809 -4.91027 Q -17.98 -4.9 -18.26412 -4.91255 L -18.11048 -4.94804 Q -17.81 -4.94 -17.56471 -4.95032 Q -17.32 -4.96 -17.2018 -4.98911 Q -17.09 -5.02 -17.13594 -5.01698 Q -17.09 -5.02 -17.16973 -5.0338 Q -17.25 -5.05 -17.50688 -5.05942 Q -17.71 -5.07 -17.91433 -5.05508 Q -18.12 -5.05 -18.37856 -5.01496 Q -18.64 -4.98 -18.86428 -4.96988 Q -19.09 -4.95 -19.31647 -4.95103 Q -19.55 -4.95 -19.80132 -4.95417 Q -20.21 -4.97 -20.34578 -4.99752 Q -20.48 -5.03 -20.40357 -5.0267 Q -20.48 -5.03 -20.29785 -5.07212 Q -20.18 -5.1 -19.94225 -5.11996 Q -19.71 -5.14 -19.41914 -5.14684 Q -19.13 -5.15 -18.83911 -5.1454 L -18.99274 -5.10992 Q -19.3 -5.12 -19.55157 -5.10521 Q -19.81 -5.09 -19.93549 -5.06217 Q -20.06 -5.03 -20.00883 -5.03164 Q -20.06 -5.03 -19.97787 -5.01539 Q -19.9 -5 -19.6523 -4.98978 Q -19.41 -4.98 -19.21063 -4.99308 Z" />
    <path d="M -16.71325 -5.2308 Q -16.76 -5.22 -16.81084 -5.21661 L -17.20781 -5.22752 Q -17.16 -5.23 -17.11922 -5.24381 Q -16.97 -5.28 -17.07267 -5.26411 Q -16.97 -5.28 -17.28034 -5.29905 L -19.05287 -5.34776 L -18.90561 -5.38177 L -16.40837 -5.31316 L -16.55165 -5.28006 L -16.84254 -5.28744 Q -16.58 -5.26 -16.66853 -5.25092 Q -16.58 -5.26 -16.71325 -5.2308 Z" />
    <path d="M -18.28791 -5.41171 Q -18.66 -5.45 -18.52487 -5.46489 Q -18.66 -5.45 -18.4455 -5.49998 Q -18.27 -5.54 -17.82702 -5.55664 Q -17.38 -5.57 -16.82513 -5.5575 L -16.74666 -5.55535 Q -16.38 -5.55 -16.13207 -5.52581 Q -15.89 -5.51 -15.812 -5.48163 Q -15.73 -5.46 -15.77896 -5.46053 Q -15.73 -5.46 -15.83763 -5.43306 Q -16.01 -5.39 -16.41953 -5.38156 Q -16.83 -5.37 -17.43125 -5.38529 L -17.60896 -5.39017 L -17.02548 -5.52495 Q -17.4 -5.53 -17.69652 -5.52415 Q -18 -5.51 -18.10495 -5.48857 Q -18.18 -5.47 -18.15732 -5.46571 Q -18.18 -5.47 -18.14477 -5.45551 Q -18.11 -5.44 -17.99485 -5.4269 L -18.28791 -5.41171 Z" />
    <path d="M -14.759 -5.69413 L -14.87761 -5.66673 L -16.9909 -5.67192 L -15.24776 -5.58123 L -15.39503 -5.54722 L -17.64152 -5.67375 L -17.52212 -5.70133 L -15.42021 -5.69769 L -17.10898 -5.79676 L -16.98958 -5.82434 L -14.24238 -5.81346 L -14.38885 -5.77963 L -16.42788 -5.79183 L -14.759 -5.69413 Z" />
    <path d="M -20.02365 -4.20727 L -20.17092 -4.17326 L -23.71599 -4.27066 L -23.56872 -4.30468 L -20.02365 -4.20727 Z" />
    <path d="M -15.64977 -6.05447 Q -15.19 -6.07 -14.60638 -6.05389 L -14.57638 -6.05306 Q -14.21 -6.04 -13.96605 -6.02343 Q -13.72 -6 -13.65219 -5.97901 Q -13.58 -5.95 -13.62523 -5.95978 Q -13.58 -5.95 -13.69552 -5.92784 Q -13.87 -5.89 -14.33323 -5.87181 Q -14.8 -5.86 -15.38123 -5.87252 L -15.41124 -5.87335 Q -15.78 -5.88 -16.01739 -5.90245 Q -16.26 -5.92 -16.33089 -5.94666 Q -16.4 -5.97 -16.35844 -5.96613 Q -16.4 -5.97 -16.28668 -5.99863 Q -16.11 -6.04 -15.64977 -6.05447 Z" />
    <path d="M -14.0402 -6.09727 Q -14.2 -6.13 -14.11115 -6.12829 Q -14.2 -6.13 -14.00237 -6.17431 L -13.72934 -6.23738 L -15.04489 -6.27353 L -14.89205 -6.30883 L -11.53162 -6.2165 L -11.95909 -6.11776 Q -12.15 -6.07 -12.53877 -6.05664 Q -12.93 -6.04 -13.39212 -6.05221 Q -13.88 -6.07 -14.0402 -6.09727 Z" />
    <path d="M -11.18247 -6.52024 L -11.30107 -6.49285 L -13.41436 -6.49804 L -11.67122 -6.40735 L -11.81849 -6.37333 L -14.06498 -6.49987 L -13.94558 -6.52745 L -11.84368 -6.5238 L -13.53244 -6.62287 L -13.41304 -6.65045 L -10.66585 -6.63957 L -10.81231 -6.60574 L -12.85134 -6.61794 L -11.18247 -6.52024 Z" />
    <path d="M -12.07324 -6.88059 Q -11.61 -6.9 -11.02984 -6.88 L -10.99984 -6.87918 Q -10.63 -6.87 -10.38951 -6.84955 Q -10.15 -6.83 -10.07565 -6.80513 Q -10.01 -6.78 -10.04869 -6.78589 Q -10.01 -6.78 -10.11899 -6.75396 Q -10.29 -6.71 -10.75669 -6.69793 Q -11.22 -6.68 -11.8047 -6.69864 L -11.8347 -6.69946 Q -12.2 -6.71 -12.44086 -6.72857 Q -12.68 -6.75 -12.75435 -6.77277 Q -12.83 -6.8 -12.7819 -6.79225 Q -12.83 -6.8 -12.71014 -6.82474 Q -12.54 -6.87 -12.07324 -6.88059 Z" />
    <path d="M -11.12483 -7.07549 Q -11.08 -7.06 -10.91342 -7.05662 Q -10.74 -7.05 -10.59957 -7.05962 Q -10.46 -7.07 -10.27773 -7.09131 Q -10.1 -7.12 -9.93404 -7.12774 Q -9.77 -7.14 -9.60613 -7.14383 Q -9.44 -7.15 -9.25618 -7.14234 Q -8.95 -7.13 -8.82644 -7.10739 Q -8.7 -7.08 -8.76892 -7.0813 Q -8.7 -7.08 -8.84296 -7.04869 Q -8.99 -7.01 -9.29983 -6.99984 Q -9.61 -6.98 -9.95182 -6.99419 L -9.80376 -7.02839 Q -9.63 -7.02 -9.45007 -7.03194 Q -9.27 -7.04 -9.19377 -7.05833 Q -9.11 -7.08 -9.14645 -7.07836 Q -9.11 -7.08 -9.16955 -7.09018 Q -9.23 -7.1 -9.3896 -7.10795 Q -9.54 -7.11 -9.66489 -7.10461 Q -9.79 -7.1 -9.96735 -7.07352 Q -10.15 -7.05 -10.31685 -7.03693 Q -10.48 -7.02 -10.65722 -7.02006 Q -10.83 -7.02 -11.03068 -7.02178 Q -11.37 -7.03 -11.47495 -7.05785 Q -11.58 -7.08 -11.52172 -7.08209 Q -11.58 -7.08 -11.4373 -7.11874 Q -11.33 -7.14 -11.14805 -7.15812 Q -10.96 -7.17 -10.72689 -7.17874 Q -10.49 -7.18 -10.26994 -7.17781 L -10.4172 -7.1438 Q -10.64 -7.15 -10.81694 -7.13945 Q -11 -7.13 -11.08879 -7.10917 Q -11.17 -7.09 -11.14207 -7.08656 Q -11.17 -7.09 -11.12483 -7.07549 Z" />
    <path d="M -10.8368 -7.23597 L -10.87372 -7.23699 L -10.71929 -7.27266 Q -10.63 -7.27 -10.43549 -7.27021 Q -10.64 -7.3 -10.55774 -7.30859 Q -10.64 -7.3 -10.49958 -7.33534 Q -10.37 -7.36 -10.08175 -7.37787 Q -9.79 -7.39 -9.47048 -7.38216 Q -9.08 -7.37 -8.96692 -7.34188 Q -8.85 -7.31 -8.92383 -7.31753 Q -8.85 -7.31 -9.03888 -7.26949 L -9.18217 -7.23639 L -8.98599 -7.231 Q -8.76 -7.22 -8.58324 -7.23187 Q -8.4 -7.24 -8.31441 -7.25966 Q -8.24 -7.28 -8.27032 -7.27918 Q -8.24 -7.28 -8.29767 -7.29335 Q -8.36 -7.31 -8.5236 -7.31335 L -8.37554 -7.34755 Q -8.19 -7.34 -8.06011 -7.32705 Q -7.93 -7.31 -7.90849 -7.29079 Q -7.89 -7.27 -7.90391 -7.28249 Q -7.89 -7.27 -7.97927 -7.24819 Q -8.13 -7.21 -8.42831 -7.20025 Q -8.73 -7.19 -9.11017 -7.19635 L -10.25955 -7.22793 Q -10.6 -7.24 -10.8368 -7.23597 Z" />
    <path d="M -8.78734 -7.7189 L -5.42691 -7.62657 L -5.62433 -7.58097 L -8.74512 -7.56879 L -6.38214 -7.40593 L -6.58035 -7.36015 L -9.94078 -7.45248 L -9.78795 -7.48778 L -8.47932 -7.45183 L -7.08116 -7.40971 L -9.42177 -7.57236 L -9.30476 -7.59939 L -6.21086 -7.61252 L -7.63155 -7.64765 L -8.94018 -7.6836 L -8.78734 -7.7189 Z" />
    <path d="M -8.38259 -6.89614 L -8.52985 -6.86213 L -12.07492 -6.95953 L -11.92766 -6.99355 L -8.38259 -6.89614 Z" />
    <path d="M -33.72599 7.76534 L -33.72599 -2.20287" />
    <path d="M 3.35497 -1.56323 L 3.35497 -1.60537" />
    <path d="M -1.93694 -8.32388 L -1.93694 -1.75077" />
    <path d="M 28.787 2.48852 L 28.787 -7.4797" />
    <path d="M 28.95002 -7.51735 L 28.95002 2.45087" />
    <path d="M 32.25875 2.54178 L 32.25875 -7.42644" />
    <path d="M 36.49743 -5.91344 A 2.5 0.81254 91.5739 0 1 36.56609 -5.92044 A 2.5 0.81254 91.5739 0 1 36.42876 -0.92233 A 2.5 0.81254 91.5739 0 1 36.49743 -5.91344 Z" />
    <path d="M -24.85238 -4.17663 L -24.85238 -4.25251" />
    <path d="M -23.5867 -4.5068 L -23.5867 -4.54486" />
    <path d="M -22.67207 -4.71806 L -22.67207 -4.75612" />
    <path d="M -23.60794 -4.09479 L -23.60794 -4.13397" />
    <path d="M -24.13725 -4.12801 L -24.13725 -4.1662" />
    <path d="M -24.35849 -4.14189 L -24.35849 -4.18072" />
    <path d="M -22.54628 -4.45002 L -22.54628 -4.47821" />
    <path d="M -20.56276 -4.34515 L -20.56276 -4.42515" />
    <path d="M -21.63165 -4.66128 L -21.63165 -4.68947" />
    <path d="M -19.64813 -4.55642 L -19.64813 -4.63641" />
    <path d="M -21.36294 -4.77797 L -21.36294 -4.81418" />
    <path d="M -21.1128 -4.77109 L -21.1128 -4.80813" />
    <path d="M -20.67492 -4.75906 L -20.67492 -4.79712" />
    <path d="M -19.95241 -4.87644 L -19.95241 -4.9145" />
    <path d="M -18.11048 -4.90932 L -18.11048 -4.94804" />
    <path d="M -16.84254 -5.21748 L -16.84254 -5.28744" />
    <path d="M -18.90561 -5.34371 L -18.90561 -5.38177" />
    <path d="M -17.02548 -5.43428 L -17.02548 -5.52495" />
    <path d="M -16.42788 -5.7568 L -16.42788 -5.79183" />
    <path d="M -16.9909 -5.63711 L -16.9909 -5.67192" />
    <path d="M -16.98958 -5.78976 L -16.98958 -5.82434" />
    <path d="M -17.52212 -5.66703 L -17.52212 -5.70133" />
    <path d="M -15.42021 -5.66807 L -15.42021 -5.69769" />
    <path d="M -23.56872 -4.26662 L -23.56872 -4.30468" />
    <path d="M -13.72934 -6.06579 L -13.72934 -6.23738" />
    <path d="M -14.89205 -6.26933 L -14.89205 -6.30883" />
    <path d="M -12.85134 -6.58292 L -12.85134 -6.61794" />
    <path d="M -13.41436 -6.46322 L -13.41436 -6.49804" />
    <path d="M -13.41304 -6.61587 L -13.41304 -6.65045" />
    <path d="M -13.94558 -6.49314 L -13.94558 -6.52745" />
    <path d="M -11.84368 -6.49418 L -11.84368 -6.5238" />
    <path d="M -9.80376 -6.99125 L -9.80376 -7.02839" />
    <path d="M -10.71929 -7.23603 L -10.71929 -7.27266" />
    <path d="M -10.43549 -7.23221 L -10.43549 -7.27021" />
    <path d="M -8.37554 -7.30521 L -8.37554 -7.34755" />
    <path d="M -9.18217 -7.19833 L -9.18217 -7.23639" />
    <path d="M -8.78734 -7.6794 L -8.78734 -7.7189" />
    <path d="M -8.74512 -7.52534 L -8.74512 -7.56879" />
    <path d="M -6.21086 -7.57868 L -6.21086 -7.61252" />
    <path d="M -9.30476 -7.56423 L -9.30476 -7.59939" />
    <path d="M -7.08116 -7.37391 L -7.08116 -7.40971" />
    <path d="M -9.78795 -7.44828 L -9.78795 -7.48778" />
    <path d="M -8.47932 -7.41232 L -8.47932 -7.45183" />
    <path d="M -11.92766 -6.95549 L -11.92766 -6.99355" />
    <path d="M -21.95226 -4.34997 Q -21.53 -4.34 -21.22316 -4.34598 Q -20.92 -4.35 -20.80817 -4.37861 Q -20.67 -4.41 -20.76463 -4.39809 Q -20.67 -4.41 -20.95146 -4.43439 L -22.14469 -4.46718 Q -22.55 -4.46 -22.68846 -4.42986 Q -22.79 -4.41 -22.72753 -4.41226 Q -22.79 -4.41 -22.61333 -4.38428 Q -22.43 -4.36 -21.95226 -4.34997 Z" />
    <path d="M -21.03763 -4.56123 Q -20.62 -4.55 -20.30853 -4.55725 Q -20 -4.56 -19.89353 -4.58987 Q -19.76 -4.62 -19.84999 -4.60935 Q -19.76 -4.62 -20.03683 -4.64565 L -21.23006 -4.67844 Q -21.64 -4.67 -21.77383 -4.64112 Q -21.88 -4.62 -21.8129 -4.62353 Q -21.88 -4.62 -21.6987 -4.59555 Q -21.52 -4.57 -21.03763 -4.56123 Z" />
    <path d="M -16.18844 -5.4427 Q -16.1 -5.46 -16.15177 -5.45939 Q -16.1 -5.46 -16.22689 -5.48243 Q -16.35 -5.5 -16.67944 -5.51421 L -17.11088 -5.41455 L -17.07857 -5.41366 Q -16.75 -5.41 -16.51378 -5.41378 Q -16.28 -5.42 -16.18844 -5.4427 Z" />
    <path d="M -17.11088 -5.37838 L -17.11088 -5.41455" />
    <path d="M -17.07857 -5.37791 L -17.07857 -5.41366" />
    <path d="M -14.77521 -6.02026 Q -15.19 -6.03 -15.50869 -6.02323 Q -15.83 -6.01 -15.93817 -5.98905 Q -16.05 -5.96 -15.98 -5.97024 Q -16.05 -5.96 -15.86145 -5.94086 Q -15.67 -5.92 -15.2132 -5.90597 Q -14.8 -5.89 -14.48008 -5.90321 Q -14.16 -5.91 -14.04634 -5.93748 Q -13.94 -5.96 -14.00585 -5.95579 Q -13.94 -5.96 -14.12199 -5.98503 Q -14.31 -6.01 -14.77521 -6.02026 Z" />
    <path d="M -12.04912 -6.10026 L -12.04912 -6.19121 L -13.36698 -6.22742 L -13.64161 -6.16399 Q -13.76 -6.14 -13.70851 -6.13566 Q -13.76 -6.14 -13.66214 -6.116 Q -13.56 -6.1 -13.2439 -6.08764 Q -12.94 -6.08 -12.69856 -6.08952 Q -12.45 -6.1 -12.33251 -6.12576 L -12.04912 -6.19121" />
    <path d="M -12.33251 -6.06864 L -12.33251 -6.12576" />
    <path d="M -11.19868 -6.84637 Q -11.61 -6.86 -11.93215 -6.84935 Q -12.25 -6.84 -12.36164 -6.81517 Q -12.47 -6.79 -12.40346 -6.79635 Q -12.47 -6.79 -12.28491 -6.76697 Q -12.1 -6.74 -11.63666 -6.73208 Q -11.23 -6.72 -10.90354 -6.72932 Q -10.58 -6.74 -10.4698 -6.7636 Q -10.36 -6.79 -10.42932 -6.78191 Q -10.36 -6.79 -10.54545 -6.81114 Q -10.73 -6.83 -11.19868 -6.84637 Z" />
    <path d="M -10.14949 -7.32016 Q -10.22 -7.3 -10.19269 -7.29974 Q -10.22 -7.3 -10.17697 -7.28697 Q -10.14 -7.27 -9.99689 -7.25878 L -9.48452 -7.2447 L -9.36909 -7.27136 Q -9.1 -7.33 -9.26874 -7.31086 Q -9.1 -7.33 -9.55773 -7.34649 Q -9.76 -7.35 -9.91779 -7.34445 Q -10.08 -7.34 -10.14949 -7.32016 Z" />
    <path d="M -9.99689 -7.22071 L -9.99689 -7.25878" />
    <path d="M -9.48452 -7.20664 L -9.48452 -7.2447" />
    <path d="M -24.61044 -4.15771 L -24.61044 -4.20544" />
    <path d="M -23.08154 -4.37909 L -23.08154 -4.42914" />
    <path d="M -22.16691 -4.59035 L -22.16691 -4.6404" />
    <path d="M -21.15357 -4.81434 L -21.15357 -4.87446" />
    <path d="M -20.71187 -4.87393 L -20.71187 -4.91654" />
    <path d="M -19.21063 -4.95344 L -19.21063 -4.99308" />
    <path d="M -18.72753 -4.98014 L -18.72753 -5.03576" />
    <path d="M -19.6523 -4.95096 L -19.6523 -4.98978" />
    <path d="M -18.03862 -5.04745 L -18.03862 -5.0908" />
    <path d="M -19.97787 -4.96058 L -19.97787 -5.01539" />
    <path d="M -17.35938 -5.05365 L -17.35938 -5.09528" />
    <path d="M -16.81221 -4.98524 L -16.81221 -5.05196" />
    <path d="M -19.41914 -5.11047 L -19.41914 -5.14684" />
    <path d="M -19.94225 -5.06057 L -19.94225 -5.11996" />
    <path d="M -20.29785 -4.98819 L -20.29785 -5.07212" />
    <path d="M -17.56471 -4.91355 L -17.56471 -4.95032" />
    <path d="M -17.2018 -4.9322 L -17.2018 -4.98911" />
    <path d="M -17.11922 -5.22509 L -17.11922 -5.24381" />
    <path d="M -18.4455 -5.43296 L -18.4455 -5.49998" />
    <path d="M -17.82702 -5.51848 L -17.82702 -5.55664" />
    <path d="M -18.14477 -5.41913 L -18.14477 -5.45551" />
    <path d="M -16.82513 -5.48055 L -16.82513 -5.5575" />
    <path d="M -16.74666 -5.49868 L -16.74666 -5.55535" />
    <path d="M -16.13207 -5.39558 L -16.13207 -5.52581" />
    <path d="M -15.812 -5.43984 L -15.812 -5.48163" />
    <path d="M -15.64977 -6.01817 L -15.64977 -6.05447" />
    <path d="M -14.60638 -6.01499 L -14.60638 -6.05389" />
    <path d="M -16.28668 -5.93497 L -16.28668 -5.99863" />
    <path d="M -14.57638 -6.0139 L -14.57638 -6.05306" />
    <path d="M -13.96605 -5.89155 L -13.96605 -6.02343" />
    <path d="M -13.65219 -5.94013 L -13.65219 -5.97901" />
    <path d="M -14.00237 -6.09071 L -14.00237 -6.17431" />
    <path d="M -12.07324 -6.84428 L -12.07324 -6.88059" />
    <path d="M -11.02984 -6.8411 L -11.02984 -6.88" />
    <path d="M -12.71014 -6.76108 L -12.71014 -6.82474" />
    <path d="M -10.99984 -6.84001 L -10.99984 -6.87918" />
    <path d="M -10.38951 -6.71766 L -10.38951 -6.84955" />
    <path d="M -10.07565 -6.76624 L -10.07565 -6.80513" />
    <path d="M -11.12483 -7.02489 L -11.12483 -7.07549" />
    <path d="M -10.91342 -7.01932 L -10.91342 -7.05662" />
    <path d="M -10.59957 -7.02159 L -10.59957 -7.05962" />
    <path d="M -10.27773 -7.04011 L -10.27773 -7.09131" />
    <path d="M -9.93404 -7.07776 L -9.93404 -7.12774" />
    <path d="M -9.60613 -7.10753 L -9.60613 -7.14383" />
    <path d="M -10.72689 -7.14313 L -10.72689 -7.17874" />
    <path d="M -9.25618 -7.10153 L -9.25618 -7.14234" />
    <path d="M -11.14805 -7.02584 L -11.14805 -7.15812" />
    <path d="M -8.82644 -7.05273 L -8.82644 -7.10739" />
    <path d="M -11.4373 -7.05024 L -11.4373 -7.11874" />
    <path d="M -9.45007 -6.99404 L -9.45007 -7.03194" />
    <path d="M -9.19377 -7.00583 L -9.19377 -7.05833" />
    <path d="M -10.49958 -7.28206 L -10.49958 -7.33534" />
    <path d="M -10.08175 -7.33157 L -10.08175 -7.37787" />
    <path d="M -7.90849 -7.27414 L -7.90849 -7.29079" />
    <path d="M -9.47048 -7.34335 L -9.47048 -7.38216" />
    <path d="M -8.06011 -7.23278 L -8.06011 -7.32705" />
    <path d="M -8.96692 -7.28934 L -8.96692 -7.34188" />
    <path d="M -8.98599 -7.19379 L -8.98599 -7.231" />
    <path d="M -8.31441 -7.2065 L -8.31441 -7.25966" />
    <path d="M -8.58324 -7.19492 L -8.58324 -7.23187" />
    <path d="M -21.95226 -4.31231 L -21.95226 -4.34997" />
    <path d="M -21.22316 -4.30806 L -21.22316 -4.34598" />
    <path d="M -22.61333 -4.33516 L -22.61333 -4.38428" />
    <path d="M -20.80817 -4.32215 L -20.80817 -4.37861" />
    <path d="M -21.03763 -4.52358 L -21.03763 -4.56123" />
    <path d="M -20.30853 -4.51932 L -20.30853 -4.55725" />
    <path d="M -21.6987 -4.54642 L -21.6987 -4.59555" />
    <path d="M -19.89353 -4.53341 L -19.89353 -4.58987" />
    <path d="M -16.18844 -5.39183 L -16.18844 -5.4427" />
    <path d="M -16.51378 -5.3791 L -16.51378 -5.41378" />
    <path d="M -15.86145 -5.89182 L -15.86145 -5.94086" />
    <path d="M -15.2132 -5.8685 L -15.2132 -5.90597" />
    <path d="M -14.48008 -5.86778 L -14.48008 -5.90321" />
    <path d="M -14.04634 -5.88559 L -14.04634 -5.93748" />
    <path d="M -13.66214 -6.06221 L -13.66214 -6.116" />
    <path d="M -13.2439 -6.04887 L -13.2439 -6.08764" />
    <path d="M -12.69856 -6.05094 L -12.69856 -6.08952" />
    <path d="M -12.28491 -6.71793 L -12.28491 -6.76697" />
    <path d="M -11.63666 -6.69462 L -11.63666 -6.73208" />
    <path d="M -10.90354 -6.6939 L -10.90354 -6.72932" />
    <path d="M -10.4698 -6.71171 L -10.4698 -6.7636" />
    <path d="M -10.17697 -7.22566 L -10.17697 -7.28697" />
    <path d="M -9.36909 -7.20347 L -9.36909 -7.27136" />
    <path d="M -24.6279 -4.1588 L -24.6279 -4.21537" />
    <path d="M -20.87472 -4.76455 L -20.87472 -4.83346" />
    <path d="M -20.00883 -4.9621 L -20.00883 -5.03164" />
    <path d="M -17.13594 -4.93758 L -17.13594 -5.01698" />
    <path d="M -17.07267 -5.22381 L -17.07267 -5.26411" />
    <path d="M -18.15732 -5.41848 L -18.15732 -5.46571" />
    <path d="M -11.14207 -7.02559 L -11.14207 -7.08656" />
    <path d="M -9.14645 -7.00915 L -9.14645 -7.07836" />
    <path d="M -8.27032 -7.20961 L -8.27032 -7.27918" />
    <path d="M -22.72753 -4.34186 L -22.72753 -4.41226" />
    <path d="M -20.76463 -4.32494 L -20.76463 -4.39809" />
    <path d="M -21.8129 -4.55312 L -21.8129 -4.62353" />
    <path d="M -19.84999 -4.5362 L -19.84999 -4.60935" />
    <path d="M -16.15177 -5.3942 L -16.15177 -5.45939" />
    <path d="M -15.98 -5.89961 L -15.98 -5.97024" />
    <path d="M -14.00585 -5.88844 L -14.00585 -5.95579" />
    <path d="M -13.70851 -6.06462 L -13.70851 -6.13566" />
    <path d="M -12.40346 -6.72572 L -12.40346 -6.79635" />
    <path d="M -10.42932 -6.71455 L -10.42932 -6.78191" />
    <path d="M -10.19269 -7.22609 L -10.19269 -7.29974" />
    <path d="M -9.26874 -7.20071 L -9.26874 -7.31086" />
</svg>